<svg xmlns="http://www.w3.org/2000/svg" xmlns:xlink="http://www.w3.org/1999/xlink" viewBox="0 0 341.28 381.77"><defs><style>.cls-1{isolation:isolate;}.cls-2{fill:none;stroke:#fa6a54;stroke-miterlimit:10;stroke-width:42px;}.cls-3{fill:#4d4d4d;}.cls-10,.cls-11,.cls-4,.cls-6,.cls-7,.cls-8,.cls-9{mix-blend-mode:soft-light;}.cls-4{fill:url(#Branco_preto);}.cls-10,.cls-11,.cls-5{fill:#fff;}.cls-6{fill:url(#Branco_preto-2);}.cls-7{fill:url(#Branco_preto-3);}.cls-8{fill:url(#Branco_preto-4);}.cls-9{fill:url(#Branco_preto-5);}.cls-11{opacity:0.32;}</style><linearGradient id="Branco_preto" x1="170.16" y1="207.61" x2="322.84" y2="207.61" gradientUnits="userSpaceOnUse"><stop offset="0" stop-color="#fff"/><stop offset="1"/></linearGradient><linearGradient id="Branco_preto-2" x1="81.79" y1="111.94" x2="423.07" y2="111.94" xlink:href="#Branco_preto"/><linearGradient id="Branco_preto-3" x1="177.89" y1="274.55" x2="320.15" y2="274.55" xlink:href="#Branco_preto"/><linearGradient id="Branco_preto-4" x1="88.98" y1="289.19" x2="194.59" y2="289.19" xlink:href="#Branco_preto"/><linearGradient id="Branco_preto-5" x1="412" y1="320.5" x2="264" y2="273.08" xlink:href="#Branco_preto"/></defs><title>379816-PCBQQ2-753</title><g class="cls-1"><g id="OBJECTS"><circle class="cls-2" cx="167.94" cy="220.23" r="140.53"/><path class="cls-3" d="M264.88,212.22h0l-.52.38-.35.26c-16.65,12-34.11-8.6-34.11-8.6v0c-11.25-14.05-30-29.14-59.75-32.42,0,0,7,53,33.77,67.25,10.48,5.58,19.37,4.91,26.15,2.27a15.39,15.39,0,0,0,3.94-1.85l.9-.52c6.28-3.58,9.63-3.94,9.85-4a30.74,30.74,0,0,1,16.41,3.44h0c4.92,3,11.95,5.32,21.79,4.58,30.2-2.27,39.88-47.42,39.88-47.42C293.43,196.72,275.48,204.6,264.88,212.22Z" transform="translate(-81.79 -20.83)"/><path class="cls-4" d="M264.88,212.22h0l-.52.38-.35.26c-16.65,12-34.11-8.6-34.11-8.6v0c-11.25-14.05-30-29.14-59.75-32.42,0,0,7,53,33.77,67.25,10.48,5.58,19.37,4.91,26.15,2.27a15.39,15.39,0,0,0,3.94-1.85l.9-.52c6.28-3.58,9.63-3.94,9.85-4a30.74,30.74,0,0,1,16.41,3.44h0c4.92,3,11.95,5.32,21.79,4.58,30.2-2.27,39.88-47.42,39.88-47.42C293.43,196.72,275.48,204.6,264.88,212.22Z" transform="translate(-81.79 -20.83)"/><path class="cls-5" d="M239.86,226.82s-22.1-32.15-56.05-38.32c0,0,6.47,34.36,28,44.05S239.86,226.82,239.86,226.82Z" transform="translate(-81.79 -20.83)"/><path class="cls-5" d="M256,227.14s21.2-18.68,53.89-21.19c0,0-13.29,28.38-30.9,30.17S256,227.14,256,227.14Z" transform="translate(-81.79 -20.83)"/><path class="cls-3" d="M254.61,202.9c-27.13,3-129.49-37.11-172.82-83.06,0,0,64,29.46,90.36,15.11,12.74-6.93,36.34-93.84,36.34-93.84S215.87,18.39,231.93,21c8.62,1.43,22.69,31.07,30.38,38.19S279.09,56,284.68,54.7s22.5,42.87,36.48,79.76c0,0,29,17.47,101.91-11.81C423.07,122.65,325.22,195,254.61,202.9Z" transform="translate(-81.79 -20.83)"/><path class="cls-6" d="M254.61,202.9c-27.13,3-129.49-37.11-172.82-83.06,0,0,64,29.46,90.36,15.11,12.74-6.93,36.34-93.84,36.34-93.84S215.87,18.39,231.93,21c8.62,1.43,22.69,31.07,30.38,38.19S279.09,56,284.68,54.7s22.5,42.87,36.48,79.76c0,0,29,17.47,101.91-11.81C423.07,122.65,325.22,195,254.61,202.9Z" transform="translate(-81.79 -20.83)"/><path class="cls-3" d="M177.89,221.62s20.47,21,34,29,24.23-7.3,35.55-7.44,28,13.33,35.57,14.41,31.26-25.18,37.19-38.19c0,0-23.42,77.36-71.13,110.26C249,329.68,215.61,320.79,177.89,221.62Z" transform="translate(-81.79 -20.83)"/><path class="cls-7" d="M177.89,221.62s20.47,21,34,29,24.23-7.3,35.55-7.44,28,13.33,35.57,14.41,31.26-25.18,37.19-38.19c0,0-23.42,77.36-71.13,110.26C249,329.68,215.61,320.79,177.89,221.62Z" transform="translate(-81.79 -20.83)"/><path class="cls-3" d="M156.12,207.27S116.46,218.87,89,263.06l58.19,44.52s-21.55,12.74-28.56,26.68l76,38.19-57.84-41.09s7.77-13.87,35.56-26.41l-59.8-45.06s12.67-24.95,51.41-38.79l-3.82-15.17C156.75,207,156.12,207.27,156.12,207.27Z" transform="translate(-81.79 -20.83)"/><path class="cls-8" d="M156.12,207.27S116.46,218.87,89,263.06l58.19,44.52s-21.55,12.74-28.56,26.68l76,38.19-57.84-41.09s7.77-13.87,35.56-26.41l-59.8-45.06s12.67-24.95,51.41-38.79l-3.82-15.17C156.75,207,156.12,207.27,156.12,207.27Z" transform="translate(-81.79 -20.83)"/><path class="cls-3" d="M335.5,207.27s39.65,11.6,67.14,55.79l-58.2,44.52S366,320.32,373,334.26l-76,38.19,57.84-41.09S347.09,317.49,319.3,305l59.8-45.06s-12.67-24.95-51.4-38.79l3.81-15.17C334.86,207,335.5,207.27,335.5,207.27Z" transform="translate(-81.79 -20.83)"/><path class="cls-9" d="M335.5,207.27s39.65,11.6,67.14,55.79l-58.2,44.52S366,320.32,373,334.26l-76,38.19,57.84-41.09S347.09,317.49,319.3,305l59.8-45.06s-12.67-24.95-51.4-38.79l3.81-15.17C334.86,207,335.5,207.27,335.5,207.27Z" transform="translate(-81.79 -20.83)"/><path class="cls-10" d="M225.13,25.76s-4.7-.53-11.76,16.27c-7.64,18.18-22.73,77.3-32.62,90.66s-38.76,7.76-46,6.69c0,0,25.53,14,43.12,18.41l-16.12-10.13,15,2.68-6.58-4.55A22.9,22.9,0,0,0,189,133.23C195.18,120.93,219.24,33,225.13,25.76Z" transform="translate(-81.79 -20.83)"/><path class="cls-11" d="M282.43,57.83s2.69-1.21,4.44.94,29.23,72.08,30.85,75.17,22.5,16,48.77,10.24c0,0-17.78,9.84-26.14,13.61,0,0-21.28-6.47-28.83-22.63S282.43,57.83,282.43,57.83Z" transform="translate(-81.79 -20.83)"/><path class="cls-11" d="M269.43,63a13,13,0,0,0,5.18-1.69c1.89-1.34,4.38-2.89,5.26-2.76l.8,2.56S275,65,269.43,63Z" transform="translate(-81.79 -20.83)"/><path class="cls-10" d="M215.61,254.65s-22.37-13.2-33.14-25.87c0,0,21.27,56.42,42.66,78.14a188.6,188.6,0,0,1-27.31-52.81l9.59,7-9.85-13.74S208.06,252.22,215.61,254.65Z" transform="translate(-81.79 -20.83)"/><path class="cls-11" d="M295.94,253.06s14.64-15.19,17.86-19.86c0,0-17.64,47-42.13,72.8,0,0,18.55-24,25.35-48.68a31.9,31.9,0,0,0-7.26.37A25.72,25.72,0,0,0,295.94,253.06Z" transform="translate(-81.79 -20.83)"/><path class="cls-11" d="M300.48,222.59l6.46,5.12a31.27,31.27,0,0,1-16.52,12.93l-2-6.65S297,228.93,300.48,222.59Z" transform="translate(-81.79 -20.83)"/><path class="cls-10" d="M193.33,216.49,187,219.42s5.95,13.24,18.46,18.87l3.55-5.84S200.53,230.78,193.33,216.49Z" transform="translate(-81.79 -20.83)"/><path class="cls-10" d="M226.59,210.8l4.64-4.22s-5.59-7.07-7.67-8.11l-4,6.17S224.43,209.05,226.59,210.8Z" transform="translate(-81.79 -20.83)"/><path class="cls-11" d="M294.41,207.61l.84-7.56s-5.57,1.57-11.06,3l2.73,6.28S294,207.74,294.41,207.61Z" transform="translate(-81.79 -20.83)"/><path class="cls-10" d="M131.19,221.62S106,238,92.21,262.46l57.84,45.63s-18.15,7.9-28.92,25.68l24.25,12L125.8,333.05s7.72-15.45,31.79-25.32l-60.35-46a97.41,97.41,0,0,1,13.83-19.35C116.06,237.16,131.19,221.62,131.19,221.62Z" transform="translate(-81.79 -20.83)"/><path class="cls-11" d="M360.2,221.62s25.15,16.41,39,40.84l-57.84,45.63s18.14,7.9,28.92,25.68l-24.25,12,19.58-12.76s-7.72-15.45-31.79-25.32l60.35-46a97.41,97.41,0,0,0-13.83-19.35C375.33,237.16,360.2,221.62,360.2,221.62Z" transform="translate(-81.79 -20.83)"/></g></g></svg>